<svg width="190" height="204" xmlns="http://www.w3.org/2000/svg">
<path d="M98.5469 106.516V157.336H86.5679V144.921C86.5679 132.87 87.0029 126.916 86.9299 126.916H86.8579C86.7849 126.916 82.7189 133.886 82.2829 134.613L76.3299 144.777H70.0139L64.0609 134.613C63.6249 133.886 59.5599 126.916 59.4859 126.916H59.4139C59.3419 126.916 59.7769 132.87 59.7769 144.921V157.336H47.7989V106.516H59.2699L68.7789 121.907C72.4829 127.933 73.0639 129.24 73.1369 129.24H73.2089C73.2809 129.24 73.8609 127.933 77.5649 121.907L87.0759 106.516H98.5469Z"/>
<path d="M111.566 173.587L112.829 188.71L108.835 191.082L108.578 191.234L104.565 193.578L91.9584 185.163C89.7484 185.926 87.4814 186.568 85.1574 187.06L78.6994 200.766L74.0544 200.823L73.7564 200.824L69.1094 200.849L62.4044 187.268C60.0704 186.818 57.7924 186.216 55.5674 185.493L43.1154 194.141L39.0624 191.868L38.8034 191.722L34.7674 189.419L35.7534 174.28C33.9794 172.738 32.3024 171.093 30.7314 169.348L15.6104 170.61L13.2374 166.617L13.0874 166.359L10.7424 162.348L19.1574 149.739C18.3924 147.528 17.7504 145.262 17.2594 142.939L3.5544 136.481L3.4964 131.835L3.4954 131.539L3.4704 126.893L17.0524 120.185C17.5004 117.853 18.1024 115.576 18.8244 113.353L10.1794 100.899L12.4504 96.8449L12.5954 96.5859L14.8994 92.5489L30.0414 93.5349C31.5804 91.7619 33.2254 90.0859 34.9694 88.5149L33.7084 73.3949L37.7004 71.0179L37.9574 70.8669L41.9704 68.5229L54.5784 76.9389C56.7884 76.1759 59.0544 75.5319 61.3784 75.0419L67.8364 61.3379L72.4824 61.2769L72.7804 61.2749L77.4264 61.2509L84.1324 74.8339C86.4664 75.2809 88.7434 75.8839 90.9664 76.6069L103.42 67.9619L107.474 70.2329L107.733 70.3789L111.769 72.6809L110.972 86.5099L114.884 89.0119L115.137 89.1719L119.075 91.6439L129.983 84.8589C132.419 85.5539 134.942 85.9919 137.515 86.1649L145.5 96.2419L150.038 95.2449L150.329 95.1799L154.861 94.1459L157.779 81.6229C160.031 80.3689 162.128 78.8959 164.033 77.2289L176.796 78.7089L179.3 74.7949L179.46 74.5429L181.931 70.6079L175.145 59.6969C175.839 57.2619 176.278 54.7389 176.45 52.1649L186.529 44.1809L185.53 39.6439L185.465 39.3519L184.432 34.8209L171.911 31.9029C170.655 29.6499 169.183 27.5549 167.516 25.6499L168.996 12.8849L165.082 10.3809L164.83 10.2209L160.895 7.74988L149.984 14.5359C147.549 13.8409 145.025 13.4029 142.453 13.2309L134.467 3.15088L129.929 4.14888L129.639 4.21388L125.108 5.24889L122.19 17.7709C119.936 19.0249 117.841 20.4969 115.935 22.1649L103.17 20.6849L100.668 24.5989L100.508 24.8509L98.0354 28.7859L104.821 39.6969" stroke-width="5" stroke-linejoin="round"/>
</svg>
